<svg width="504" height="504" viewBox="0 0 504 504" fill="none" xmlns="http://www.w3.org/2000/svg">
<path d="M360.206 316.981H337.441L329.372 309.201C357.612 276.35 374.614 233.702 374.614 187.307C374.614 83.8559 290.758 0 187.307 0C83.8559 0 0 83.8559 0 187.307C0 290.758 83.8559 374.614 187.307 374.614C233.702 374.614 276.35 357.612 309.201 329.372L316.981 337.441V360.206L461.063 504L504 461.063L360.206 316.981V316.981ZM187.307 316.981C115.554 316.981 57.6329 259.06 57.6329 187.307C57.6329 115.554 115.554 57.6329 187.307 57.6329C259.06 57.6329 316.981 115.554 316.981 187.307C316.981 259.06 259.06 316.981 187.307 316.981Z" fill="#FA6A00"/>
</svg>
