<svg width="599" height="130" viewBox="0 0 599 130" fill="none" xmlns="http://www.w3.org/2000/svg">
<circle cx="53" cy="62" r="40.5" stroke="#131B30" stroke-width="25"/>
<rect x="43" y="72" width="21" height="58" fill="#FA6A00"/>
<path d="M147.88 73.884V69.56L158.878 67.304V73.508C158.878 77.268 159.818 80.088 161.698 81.968C163.578 83.848 166.053 84.788 169.124 84.788C172.132 84.788 174.513 83.848 176.268 81.968C178.023 80.0253 178.9 77.362 178.9 73.978V27.354H190.18V73.696C190.18 79.7747 188.237 84.9133 184.352 89.112C180.467 93.3107 175.422 95.41 169.218 95.41C162.701 95.41 157.499 93.4673 153.614 89.582C149.791 85.634 147.88 80.4013 147.88 73.884ZM201.453 81.592C201.453 77.7067 202.706 74.6047 205.213 72.286C207.782 69.9047 211.135 68.4007 215.271 67.774L227.021 65.988C229.277 65.6747 230.405 64.578 230.405 62.698C230.405 60.63 229.684 58.9693 228.243 57.716C226.801 56.4 224.639 55.742 221.757 55.742C218.999 55.742 216.806 56.5253 215.177 58.092C213.547 59.596 212.607 61.57 212.357 64.014L202.393 61.758C202.831 57.622 204.805 54.1127 208.315 51.23C211.824 48.2847 216.273 46.812 221.663 46.812C228.305 46.812 233.193 48.41 236.327 51.606C239.523 54.802 241.121 58.9067 241.121 63.92V86.668C241.121 89.676 241.309 92.12 241.685 94H231.533C231.219 93.06 231.063 91.1173 231.063 88.172C228.055 92.9973 223.355 95.41 216.963 95.41C212.325 95.41 208.565 94.0627 205.683 91.368C202.863 88.6107 201.453 85.352 201.453 81.592ZM219.031 86.856C222.415 86.856 225.141 85.9473 227.209 84.13C229.339 82.25 230.405 79.2107 230.405 75.012V72.944L218.467 74.73C214.393 75.4193 212.357 77.4873 212.357 80.934C212.357 82.5633 212.952 83.9733 214.143 85.164C215.333 86.292 216.963 86.856 219.031 86.856ZM296.792 111.86H286.076V88.548C283.632 92.9347 279.151 95.128 272.634 95.128C266.179 95.128 260.884 92.8407 256.748 88.266C252.675 83.6287 250.638 77.8633 250.638 70.97C250.638 64.202 252.612 58.5307 256.56 53.956C260.571 49.3813 265.835 47.094 272.352 47.094C275.987 47.094 278.995 47.8147 281.376 49.256C283.757 50.6973 285.418 52.3893 286.358 54.332V48.222H296.792V111.86ZM265.02 60.63C262.764 63.1993 261.636 66.646 261.636 70.97C261.636 75.294 262.764 78.8033 265.02 81.498C267.339 84.1927 270.284 85.54 273.856 85.54C277.428 85.54 280.373 84.1927 282.692 81.498C285.011 78.8033 286.17 75.294 286.17 70.97C286.17 66.646 285.011 63.1993 282.692 60.63C280.436 58.0607 277.491 56.776 273.856 56.776C270.221 56.776 267.276 58.0607 265.02 60.63ZM340.004 88.924C338.939 90.9293 337.184 92.496 334.74 93.624C332.359 94.752 329.79 95.316 327.032 95.316C321.706 95.316 317.476 93.5927 314.342 90.146C311.272 86.6993 309.736 82.344 309.736 77.08V48.222H320.64V75.106C320.64 78.1767 321.392 80.6833 322.896 82.626C324.4 84.5687 326.719 85.54 329.852 85.54C332.923 85.54 335.273 84.6 336.902 82.72C338.594 80.84 339.44 78.3647 339.44 75.294V48.222H350.344V85.634C350.344 88.3913 350.501 91.18 350.814 94H340.38C340.13 92.6213 340.004 90.9293 340.004 88.924ZM371.797 66.082H394.263C394.137 63.1993 393.103 60.7867 391.161 58.844C389.281 56.9013 386.555 55.93 382.983 55.93C379.724 55.93 377.092 56.964 375.087 59.032C373.081 61.0373 371.985 63.3873 371.797 66.082ZM395.485 78.02L404.697 80.934C403.381 85.1327 400.905 88.6107 397.271 91.368C393.699 94.0627 389.281 95.41 384.017 95.41C377.499 95.41 371.953 93.1853 367.379 88.736C362.867 84.2867 360.611 78.3333 360.611 70.876C360.611 63.8573 362.804 58.092 367.191 53.58C371.64 49.068 376.873 46.812 382.889 46.812C389.907 46.812 395.391 48.974 399.339 53.298C403.287 57.5593 405.261 63.3247 405.261 70.594C405.261 72.5367 405.167 73.696 404.979 74.072H371.515C371.64 77.5187 372.893 80.37 375.275 82.626C377.719 84.882 380.633 86.01 384.017 86.01C389.907 86.01 393.73 83.3467 395.485 78.02ZM452.815 34.216V48.222H462.309V57.904H452.815V79.148C452.815 81.1533 453.285 82.626 454.225 83.566C455.165 84.4433 456.638 84.882 458.643 84.882C459.897 84.882 461.15 84.7567 462.403 84.506V93.53C460.774 94.2193 458.549 94.564 455.729 94.564C451.468 94.564 448.115 93.3733 445.671 90.992C443.227 88.548 442.005 85.1953 442.005 80.934V57.904H433.545V48.222H435.895C438.214 48.222 439.969 47.564 441.159 46.248C442.35 44.932 442.945 43.2087 442.945 41.078V34.216H452.815ZM480.668 66.082H503.134C503.009 63.1993 501.975 60.7867 500.032 58.844C498.152 56.9013 495.426 55.93 491.854 55.93C488.595 55.93 485.963 56.964 483.958 59.032C481.953 61.0373 480.856 63.3873 480.668 66.082ZM504.356 78.02L513.568 80.934C512.252 85.1327 509.777 88.6107 506.142 91.368C502.57 94.0627 498.152 95.41 492.888 95.41C486.371 95.41 480.825 93.1853 476.25 88.736C471.738 84.2867 469.482 78.3333 469.482 70.876C469.482 63.8573 471.675 58.092 476.062 53.58C480.511 49.068 485.744 46.812 491.76 46.812C498.779 46.812 504.262 48.974 508.21 53.298C512.158 57.5593 514.132 63.3247 514.132 70.594C514.132 72.5367 514.038 73.696 513.85 74.072H480.386C480.511 77.5187 481.765 80.37 484.146 82.626C486.59 84.882 489.504 86.01 492.888 86.01C498.779 86.01 502.601 83.3467 504.356 78.02ZM520.51 81.592L530.004 78.96C530.192 81.1533 531.101 83.002 532.73 84.506C534.359 86.01 536.553 86.762 539.31 86.762C541.441 86.762 543.101 86.2607 544.292 85.258C545.545 84.2553 546.172 83.002 546.172 81.498C546.172 78.866 544.386 77.174 540.814 76.422L534.046 74.918C530.098 74.0407 527.059 72.4113 524.928 70.03C522.797 67.6487 521.732 64.8287 521.732 61.57C521.732 57.5593 523.361 54.1127 526.62 51.23C529.879 48.2847 533.858 46.812 538.558 46.812C541.566 46.812 544.229 47.2507 546.548 48.128C548.867 49.0053 550.653 50.1647 551.906 51.606C553.222 52.9847 554.225 54.332 554.914 55.648C555.603 56.964 556.042 58.28 556.23 59.596L547.018 62.228C546.767 60.4733 545.953 58.9067 544.574 57.528C543.258 56.0867 541.253 55.366 538.558 55.366C536.678 55.366 535.111 55.8987 533.858 56.964C532.605 57.9667 531.978 59.1887 531.978 60.63C531.978 63.1993 533.513 64.7973 536.584 65.424L543.54 66.834C547.801 67.774 551.06 69.466 553.316 71.91C555.572 74.354 556.7 77.2993 556.7 80.746C556.7 84.5687 555.165 87.984 552.094 90.992C549.086 93.9373 544.856 95.41 539.404 95.41C536.271 95.41 533.451 94.94 530.944 94C528.5 93.06 526.557 91.8693 525.116 90.428C523.737 88.924 522.641 87.4513 521.826 86.01C521.074 84.506 520.635 83.0333 520.51 81.592ZM581.331 34.216V48.222H590.825V57.904H581.331V79.148C581.331 81.1533 581.801 82.626 582.741 83.566C583.681 84.4433 585.154 84.882 587.159 84.882C588.412 84.882 589.666 84.7567 590.919 84.506V93.53C589.29 94.2193 587.065 94.564 584.245 94.564C579.984 94.564 576.631 93.3733 574.187 90.992C571.743 88.548 570.521 85.1953 570.521 80.934V57.904H562.061V48.222H564.411C566.73 48.222 568.484 47.564 569.675 46.248C570.866 44.932 571.461 43.2087 571.461 41.078V34.216H581.331Z" fill="#131B30"/>
</svg>
