<svg width="514" height="330" viewBox="0 0 514 330" fill="none" xmlns="http://www.w3.org/2000/svg">
<path d="M3.84533 154.74L3.84511 154.74C-0.615038 160.852 -0.615038 169.141 3.84511 175.253L3.8452 175.253C6.14194 178.398 34.559 216.736 79.8205 254.292C125.073 291.841 187.23 328.664 256.997 328.664C326.764 328.664 388.92 291.841 434.172 254.292C479.432 216.737 507.85 178.4 510.148 175.258L510.149 175.258C514.615 169.147 514.615 160.852 510.149 154.746C507.85 151.601 479.432 113.263 434.172 75.7068C388.92 38.158 326.764 1.33499 256.997 1.33499C187.23 1.33499 125.073 38.158 79.8205 75.7061C34.559 113.262 6.14193 151.598 3.84533 154.74ZM256.997 293.906C205.887 293.906 158.159 269.592 119.895 241.252C81.8911 213.104 53.2759 181.023 40.028 164.988C53.2584 148.939 81.8191 116.864 119.8 88.7249C158.04 60.394 205.777 36.093 256.997 36.093C308.105 36.093 355.83 60.4023 394.093 88.7405C432.096 116.887 460.713 148.968 473.966 165.011C460.736 181.059 432.175 213.135 394.194 241.274C355.954 269.605 308.217 293.906 256.997 293.906Z" fill="#FA6A00" stroke="#FA6A00"/>
<path d="M256.997 63.225C200.879 63.225 155.222 108.882 155.222 165C155.222 221.118 200.879 266.775 256.997 266.775C313.115 266.775 358.772 221.118 358.772 165C358.772 108.882 313.115 63.225 256.997 63.225ZM256.997 232.016C220.043 232.016 189.981 201.953 189.981 165C189.981 128.047 220.044 97.984 256.997 97.984C293.95 97.984 324.013 128.047 324.013 165C324.013 201.953 293.951 232.016 256.997 232.016Z" fill="#FA6A00" stroke="#FA6A00"/>
</svg>
